<?xml version="1.0" encoding="UTF-8"?>
<svg version="1.1" xmlns="http://www.w3.org/2000/svg" width="500" height="500">
<path d="M0 0 C3.69662787 4.24427644 4.75332475 7.99436465 4.640625 13.578125 C4.17393235 17.14257463 2.76190532 19.00682602 0.37109375 21.63671875 C-5.6243778 25.81114857 -11.31929555 26.1772124 -18.44140625 26.19921875 C-31.85077336 26.54035075 -43.77616023 28.7842787 -54.15625 38.0078125 C-62.88848555 47.66654519 -66.29748559 58.20604533 -65.9765625 71.04296875 C-64.72532148 83.97714562 -59.36319678 93.89855631 -49.55859375 102.2265625 C-47.65381677 103.6185149 -45.76866186 104.65243117 -43.62890625 105.63671875 C-43.27828125 104.37859375 -42.92765625 103.12046875 -42.56640625 101.82421875 C-39.91779387 93.84054429 -34.91181455 87.09231659 -29.62890625 80.63671875 C-30.20640625 80.43046875 -30.78390625 80.22421875 -31.37890625 80.01171875 C-34.64361834 78.01661691 -35.89305247 76.04643153 -37.62890625 72.63671875 C-38.49819132 68.58496632 -38.55217199 65.20924879 -36.41796875 61.57421875 C-33.20584733 57.66097438 -30.24894203 54.96365996 -25.07373047 54.31787109 C-24.11998535 54.2864502 -23.16624023 54.2550293 -22.18359375 54.22265625 C-20.58245728 54.16440674 -20.58245728 54.16440674 -18.94897461 54.10498047 C-17.24366577 54.05881592 -17.24366577 54.05881592 -15.50390625 54.01171875 C-14.32900635 53.97449707 -13.15410645 53.93727539 -11.94360352 53.89892578 C-2.50029695 53.61854027 6.92532634 53.4440625 16.37109375 53.63671875 C17.3446582 53.65460449 18.31822266 53.67249023 19.32128906 53.69091797 C44.83022122 54.227083 65.43784437 57.42738151 84.47265625 75.6484375 C97.37703258 89.12578807 104.87609271 108.23178558 104.5859375 126.8984375 C102.95330835 147.70703808 94.55513467 165.19364137 79.35546875 179.5390625 C60.65500404 195.2774307 38.81764589 196.79281882 15.4609375 196.83984375 C14.51047609 196.84267113 13.56001469 196.8454985 12.58075142 196.84841156 C7.55830743 196.86332732 2.53589165 196.87260687 -2.48657227 196.87695312 C-7.65333615 196.88245022 -12.8198382 196.9065262 -17.98651981 196.93492508 C-21.98181406 196.95359739 -25.9770455 196.95875934 -29.97237968 196.960289 C-31.87685019 196.9633018 -33.78131994 196.97128354 -35.68574715 196.98447418 C-38.35328069 197.00164384 -41.02017686 196.99962888 -43.68774414 196.99316406 C-44.4625412 197.00237885 -45.23733826 197.01159363 -46.03561401 197.02108765 C-51.54945514 196.97949929 -56.62871017 196.05543708 -61.62890625 193.63671875 C-64.95533481 189.89448662 -66.42468356 186.64017472 -66.62890625 181.63671875 C-65.94159277 177.2837334 -65.00368846 174.62082802 -61.69140625 171.76171875 C-57.97124627 169.18038326 -55.37464493 168.517102 -50.9609375 168.3203125 C-49.62192383 168.2574707 -49.62192383 168.2574707 -48.25585938 168.19335938 C-47.32708984 168.15404297 -46.39832031 168.11472656 -45.44140625 168.07421875 C-44.50103516 168.03103516 -43.56066406 167.98785156 -42.59179688 167.94335938 C-40.27097771 167.8373321 -37.950053 167.73526846 -35.62890625 167.63671875 C-35.95866455 167.12810303 -36.28842285 166.6194873 -36.62817383 166.09545898 C-42.70010024 156.58436854 -47.62890625 146.10487466 -47.62890625 134.63671875 C-48.84578125 134.32734375 -50.06265625 134.01796875 -51.31640625 133.69921875 C-68.79323116 127.8369137 -81.26701512 112.37598007 -89.234375 96.421875 C-96.5849907 79.67281812 -97.06222894 60.78016457 -90.62890625 43.63671875 C-86.49349612 33.48683044 -81.49615982 25.37429232 -73.62890625 17.63671875 C-73.09007812 17.01667969 -72.55125 16.39664063 -71.99609375 15.7578125 C-59.51572119 1.74091166 -16.76918234 -14.03463941 0 0 Z " fill="#060707" transform="translate(242.62890625,141.36328125)"/>
<path d="M0 0 C3.69662787 4.24427644 4.75332475 7.99436465 4.640625 13.578125 C4.17393235 17.14257463 2.76190532 19.00682602 0.37109375 21.63671875 C-5.6243778 25.81114857 -11.31929555 26.1772124 -18.44140625 26.19921875 C-31.85077336 26.54035075 -43.77616023 28.7842787 -54.15625 38.0078125 C-62.88848555 47.66654519 -66.29748559 58.20604533 -65.9765625 71.04296875 C-64.76191769 83.59884768 -59.56668115 94.05128666 -49.8359375 102.0703125 C-41.950759 107.66669583 -33.41760351 110.89079509 -23.703125 110.8762207 C-22.7235936 110.87924194 -22.7235936 110.87924194 -21.72427368 110.88232422 C-20.31933005 110.88584458 -18.91437049 110.88513398 -17.50942993 110.88054848 C-15.28043597 110.87490899 -13.05195345 110.88418781 -10.82299805 110.89775085 C-4.49037227 110.93469264 1.84207388 110.95341892 8.17480469 110.94213867 C12.06054358 110.93626886 15.94555562 110.95463091 19.83114624 110.98802757 C21.30461596 110.9959474 22.77816562 110.99475111 24.25161743 110.98400307 C38.52048865 110.88435649 38.52048865 110.88435649 44.37109375 116.63671875 C47.14850148 120.62302571 46.90033875 124.94912017 46.37109375 129.63671875 C44.52026842 134.26378206 41.6358151 136.19852023 37.37109375 138.63671875 C34.14355469 139.10668945 34.14355469 139.10668945 30.60546875 139.0625 C29.95089188 139.05975571 29.296315 139.05701141 28.62190247 139.05418396 C26.45421941 139.03952987 24.28832167 138.99522618 22.12109375 138.94921875 C20.58847637 138.92938011 19.0558415 138.91085433 17.52319336 138.89355469 C14.23046226 138.85198251 10.93834525 138.79594317 7.64599609 138.73095703 C3.09127253 138.64357343 -1.46294882 138.5987509 -6.01834106 138.56364441 C-9.78202658 138.5310793 -13.54530885 138.4799043 -17.30871582 138.42416382 C-19.12871581 138.3994511 -20.94880111 138.38031173 -22.7689209 138.36709595 C-33.0569894 138.28100978 -42.04469524 137.83707001 -51.62890625 133.63671875 C-52.52947754 133.2485498 -53.43004883 132.86038086 -54.35791016 132.46044922 C-60.91338115 129.52271115 -66.24681347 125.34376939 -71.62890625 120.63671875 C-72.24507812 120.1159375 -72.86125 119.59515625 -73.49609375 119.05859375 C-85.97625385 107.67116656 -94.0264184 90.02146601 -94.8828125 73.31640625 C-95.51170059 54.70815868 -90.65570159 36.25328858 -78.06640625 22.07421875 C-76.59847802 20.58389839 -75.12031366 19.10354252 -73.62890625 17.63671875 C-73.09007812 17.01667969 -72.55125 16.39664063 -71.99609375 15.7578125 C-59.51572119 1.74091166 -16.76918234 -14.03463941 0 0 Z " fill="#050606" transform="translate(242.62890625,141.36328125)"/>
<path d="M0 0 C1.49861507 0.02405861 2.99728469 0.04490979 4.49598694 0.06272888 C7.6368024 0.10986866 10.77479702 0.18801333 13.91430664 0.28979492 C17.891187 0.41738457 21.86567506 0.48038099 25.84429073 0.52084446 C28.94318994 0.5577606 32.04094298 0.62410114 35.13913155 0.69920158 C36.60224105 0.73244309 38.06553659 0.7584734 39.5289135 0.77643013 C52.50996344 0.9712997 66.58264373 3.42965731 76.1171875 13.02734375 C76.66761719 13.63578125 77.21804688 14.24421875 77.78515625 14.87109375 C78.71908203 15.8146875 78.71908203 15.8146875 79.671875 16.77734375 C84.01182374 21.36294996 86.63734845 25.95652754 88.78515625 31.87109375 C89.19765625 32.96421875 89.61015625 34.05734375 90.03515625 35.18359375 C92.6521104 48.05028498 89.73572964 60.54864966 82.59765625 71.5234375 C75.22921055 81.06748031 65.71329522 86.91111175 53.78515625 88.87109375 C51.35444663 88.98164981 48.921139 89.03973543 46.48803711 89.06396484 C45.41393333 89.07623108 45.41393333 89.07623108 44.31813049 89.08874512 C41.96209528 89.11344455 39.60611934 89.13006844 37.25 89.14453125 C36.03975253 89.15251677 36.03975253 89.15251677 34.80505562 89.1606636 C30.54053831 89.18731829 26.27604959 89.20672405 22.01147461 89.22119141 C18.48354376 89.23456745 14.95618628 89.26249721 11.4284668 89.30322266 C7.16270807 89.35245874 2.89747186 89.37729955 -1.36855888 89.38441849 C-2.99251458 89.39113824 -4.61645826 89.40637927 -6.24025154 89.4303093 C-8.50983068 89.46186905 -10.77737896 89.46201383 -13.04711914 89.45458984 C-14.98307701 89.46672012 -14.98307701 89.46672012 -16.95814514 89.47909546 C-20.21484375 88.87109375 -20.21484375 88.87109375 -22.56297302 86.51651001 C-27.4965494 78.61555084 -34.56904312 66.17889035 -32.78125 56.53125 C-32.59433594 55.98339844 -32.40742188 55.43554688 -32.21484375 54.87109375 C-31.23805664 55.19255371 -30.26126953 55.51401367 -29.25488281 55.84521484 C-25.01201838 57.05095151 -20.96456726 57.21928268 -16.57421875 57.28515625 C-15.74595581 57.30474899 -14.91769287 57.32434174 -14.06433105 57.3445282 C-11.36460165 57.40522536 -8.66488718 57.4516965 -5.96484375 57.49609375 C-4.09081746 57.53134273 -2.21679404 57.56674478 -0.34277344 57.60229492 C4.43605807 57.68905027 9.21501191 57.76011457 13.99414062 57.82818604 C16.69029328 57.86963537 19.38610361 57.92011936 22.08203125 57.97412109 C26.14373585 58.05470854 30.20517066 58.11438799 34.26745605 58.15618896 C35.76860891 58.17433015 37.2696982 58.1990162 38.77062988 58.23052979 C40.85392272 58.27215817 42.93587634 58.28785395 45.01953125 58.296875 C46.77088379 58.31874878 46.77088379 58.31874878 48.55761719 58.34106445 C52.51211412 57.76523945 54.67057813 56.32436321 57.78515625 53.87109375 C60.53851375 49.86404609 60.32218871 45.56173662 59.78515625 40.87109375 C58.02078685 36.59946258 55.87435948 34.90113475 51.78515625 32.87109375 C48.6217476 32.4290869 48.6217476 32.4290869 45.16577148 32.50219727 C44.52107407 32.49843079 43.87637665 32.49466431 43.21214294 32.49078369 C41.81809883 32.48437122 40.42401096 32.48466246 39.02996635 32.4909687 C36.81225133 32.50013012 34.59537293 32.48979533 32.37770081 32.47434998 C26.07464853 32.43441196 19.7716637 32.4330315 13.46850586 32.43530273 C9.60460281 32.43535429 5.74114699 32.41595529 1.87736702 32.38596916 C-0.28735407 32.37527852 -2.45116971 32.38719742 -4.61585999 32.39979553 C-13.11466147 32.37709879 -23.81905203 32.26688547 -30.21484375 25.87109375 C-29.04042769 23.38499222 -27.85093017 20.90802355 -26.65234375 18.43359375 C-26.32943359 17.74587891 -26.00652344 17.05816406 -25.67382812 16.34960938 C-24.59527449 14.14114241 -23.41834274 12.01409679 -22.21484375 9.87109375 C-21.80762085 9.0903952 -21.40039795 8.30969666 -20.98083496 7.50534058 C-15.73082602 -0.91623026 -8.99694618 -0.32390278 0 0 Z " fill="#70EAF2" transform="translate(228.21484375,221.12890625)"/>
<path d="M0 0 C1.17688889 0.01156631 2.35377777 0.02313263 3.56632996 0.03504944 C4.54274948 0.03675644 4.54274948 0.03675644 5.53889465 0.03849792 C7.69613702 0.04809088 9.85162133 0.08749551 12.00846863 0.12904358 C13.51762732 0.14627336 15.02679878 0.16241533 16.53598022 0.17752075 C19.7080745 0.21411861 22.87949269 0.26575654 26.05119324 0.32752991 C30.07755513 0.40452581 34.10310935 0.44215187 38.13008595 0.46764278 C41.25437266 0.49242965 44.37800945 0.54024664 47.50191307 0.59437752 C48.98347854 0.61713789 50.46517404 0.63277308 51.94689369 0.64059258 C62.28691838 0.71101321 70.64189134 2.42533618 80.11393738 6.47669983 C80.11393738 6.80669983 80.11393738 7.13669983 80.11393738 7.47669983 C72.63916182 6.71655316 72.63916182 6.71655316 69.91113281 5.4707489 C66.51966035 4.26550953 63.71940712 4.19675896 60.12052917 4.15785217 C59.09530907 4.14278374 59.09530907 4.14278374 58.04937744 4.12741089 C55.80397841 4.09667078 53.55869811 4.07956969 51.31315613 4.06263733 C49.75087469 4.04391826 48.18860327 4.02434429 46.62634277 4.00395203 C42.52471337 3.95270274 38.42305122 3.91303862 34.3212738 3.87580872 C30.13163702 3.83572378 25.94213564 3.78465196 21.75260925 3.73451233 C13.53981125 3.63783838 5.32694603 3.55340648 -2.88606262 3.47669983 C-3.54606262 5.12669983 -4.20606262 6.77669983 -4.88606262 8.47669983 C-5.87606262 8.47669983 -6.86606262 8.47669983 -7.88606262 8.47669983 C-4.27856438 0.70670362 -4.27856438 0.70670362 0 0 Z " fill="#6EC2C3" transform="translate(215.8860626220703,221.52330017089844)"/>
<path d="M0 0 C0.99 0 1.98 0 3 0 C3.33 0.66 3.66 1.32 4 2 C7.35635282 3.11878427 9.95288354 3.15885588 13.4909668 3.20532227 C14.1448941 3.21522186 14.79882141 3.22512146 15.4725647 3.23532104 C17.6314127 3.26687783 19.79028271 3.29167032 21.94921875 3.31640625 C23.44709338 3.33698081 24.94496228 3.35797742 26.44282532 3.37937927 C30.3833857 3.43454809 34.32399803 3.48398021 38.26464844 3.53222656 C42.28650531 3.58247951 46.30828684 3.63814577 50.33007812 3.69335938 C58.21998836 3.80087746 66.10996166 3.90233648 74 4 C74 4.33 74 4.66 74 5 C62.78630229 5.35987968 51.57199655 5.67494433 40.35571289 5.94281006 C38.15047094 5.996347 35.94536185 6.05379015 33.74023438 6.11181641 C29.9934483 6.20228487 26.24752173 6.26287764 22.5 6.3125 C21.40655273 6.34214844 20.31310547 6.37179688 19.18652344 6.40234375 C11.47670046 6.45961263 5.15589471 4.82894452 -2 2 C-1.34 1.34 -0.68 0.68 0 0 Z " fill="#72CFD6" transform="translate(202,247)"/>
<path d="M0 0 C0.99 0.33 1.98 0.66 3 1 C3 1.66 3 2.32 3 3 C2.01 3 1.02 3 0 3 C0 3.66 0 4.32 0 5 C0.66 5 1.32 5 2 5 C2.495 7.475 2.495 7.475 3 10 C2.236875 9.38125 1.47375 8.7625 0.6875 8.125 C-3.69870271 4.61345754 -3.69870271 4.61345754 -9.01245117 3.68115234 C-9.81305466 3.66128265 -10.61365814 3.64141296 -11.43852234 3.62094116 C-12.29798965 3.60938995 -13.15745697 3.59783875 -14.04296875 3.5859375 C-14.9265657 3.56657135 -15.81016266 3.5472052 -16.72053528 3.5272522 C-19.54275866 3.46747195 -22.36502286 3.42107734 -25.1875 3.375 C-27.10092925 3.33681878 -29.01434133 3.29776696 -30.92773438 3.2578125 C-35.61835021 3.16177168 -40.30904652 3.0777349 -45 3 C-45 2.67 -45 2.34 -45 2 C-30.48 2 -15.96 2 -1 2 C-0.67 1.34 -0.34 0.68 0 0 Z " fill="#90E0E7" transform="translate(285,250)"/>
<path d="M0 0 C2.64 0.66 5.28 1.32 8 2 C7.50113281 2.33773438 7.00226563 2.67546875 6.48828125 3.0234375 C4.21505329 6.04247516 4.85457408 9.04688708 5.1875 12.625 C5.23197266 13.31851562 5.27644531 14.01203125 5.32226562 14.7265625 C5.46201841 16.49331374 5.72219793 18.2496381 6 20 C6.66 20.33 7.32 20.66 8 21 C7.34 21.66 6.68 22.32 6 23 C2.76206536 15.47101604 0 8.27457232 0 0 Z " fill="#93EDF1" transform="translate(195,276)"/>
<path d="M0 0 C0.33 1.32 0.66 2.64 1 4 C0.34 4 -0.32 4 -1 4 C-1.9362579 6.80877371 -1.99184112 9.20397194 -1.875 12.125 C-1.91625 13.40375 -1.9575 14.6825 -2 16 C-5 18 -5 18 -7.1875 17.625 C-8.0846875 17.315625 -8.0846875 17.315625 -9 17 C-7.68990468 14.35295091 -6.37705236 11.7073344 -5.0625 9.0625 C-4.50272461 7.93038086 -4.50272461 7.93038086 -3.93164062 6.77539062 C-3.39506836 5.69741211 -3.39506836 5.69741211 -2.84765625 4.59765625 C-2.51773682 3.93258057 -2.18781738 3.26750488 -1.84790039 2.58227539 C-1 1 -1 1 0 0 Z " fill="#88E9EE" transform="translate(207,230)"/>
<path d="M0 0 C2.1875 0.3125 2.1875 0.3125 4 1 C-0.71907824 4.75189439 -4.19299024 5.5606278 -10.2421875 5.390625 C-11.01055939 5.38496521 -11.77893127 5.37930542 -12.57058716 5.37347412 C-15.00604621 5.35122173 -17.43999157 5.30105041 -19.875 5.25 C-21.5338328 5.22992042 -23.19268884 5.2116722 -24.8515625 5.1953125 C-28.90161799 5.15139406 -32.95055306 5.08244763 -37 5 C-37 4.67 -37 4.34 -37 4 C-35.98574951 3.98541748 -34.97149902 3.97083496 -33.92651367 3.95581055 C-30.16345971 3.89783747 -26.40100479 3.82060541 -22.63842773 3.73754883 C-21.00994591 3.70429464 -19.38134869 3.67626416 -17.75268555 3.65356445 C-15.41144639 3.62002643 -13.07126514 3.56771415 -10.73046875 3.51171875 C-10.00224411 3.50532883 -9.27401947 3.4989389 -8.52372742 3.49235535 C-4.51153122 3.42524352 -4.51153122 3.42524352 -1.15356445 1.44848633 C-0.77288818 0.97048584 -0.39221191 0.49248535 0 0 Z " fill="#000D10" transform="translate(282,275)"/>
<path d="M0 0 C0.99 0.33 1.98 0.66 3 1 C3 1.66 3 2.32 3 3 C3.66 3 4.32 3 5 3 C4.67 5.97 4.34 8.94 4 12 C3.01 12 2.02 12 1 12 C0.9175 12.61875 0.835 13.2375 0.75 13.875 C0 16 0 16 -2.0625 17.25 C-2.701875 17.4975 -3.34125 17.745 -4 18 C-3.34 17.071875 -2.68 16.14375 -2 15.1875 C0.83095472 10.3429789 0.35445159 5.44477025 0 0 Z " fill="#73D7DB" transform="translate(288,260)"/>
<path d="M0 0 C0.66 0 1.32 0 2 0 C2.33 0.99 2.66 1.98 3 3 C-0.3 5.97 -3.6 8.94 -7 12 C-7.66 11.34 -8.32 10.68 -9 10 C-8.67 9.01 -8.34 8.02 -8 7 C-6.35 7 -4.7 7 -3 7 C-2.814375 5.824375 -2.814375 5.824375 -2.625 4.625 C-2 2 -2 2 0 0 Z " fill="#76E0E5" transform="translate(306,292)"/>
<path d="M0 0 C0.99 0.33 1.98 0.66 3 1 C3 1.66 3 2.32 3 3 C2.01 3 1.02 3 0 3 C0 3.66 0 4.32 0 5 C0.66 5 1.32 5 2 5 C2.33 6.65 2.66 8.3 3 10 C2.29875 9.401875 1.5975 8.80375 0.875 8.1875 C-1.97030977 6.02259039 -4.76632767 4.50403364 -8 3 C-5.50935112 2.31292445 -3.62113708 2 -1 2 C-0.67 1.34 -0.34 0.68 0 0 Z " fill="#77DCE3" transform="translate(285,250)"/>
<path d="M0 0 C5.01113235 1.4317521 6.94469549 3.98445693 10 8 C6.625 7.75 6.625 7.75 3 7 C1.625 5.125 1.625 5.125 1 3 C0.67 2.01 0.34 1.02 0 0 Z " fill="#77E0E3" transform="translate(296,229)"/>
<path d="M0 0 C2.31 0.66 4.62 1.32 7 2 C7 2.33 7 2.66 7 3 C4.69 3 2.38 3 0 3 C-0.66 4.65 -1.32 6.3 -2 8 C-2.99 8 -3.98 8 -5 8 C-3.62845496 5.04590299 -2.01136276 2.55991624 0 0 Z " fill="#92E7EB" transform="translate(213,222)"/>
<path d="M0 0 C4.60853797 0.72008406 8.67237409 2.31295939 13 4 C13 4.33 13 4.66 13 5 C8.28596212 4.52060632 4.33420699 4.03165952 0 2 C0 1.34 0 0.68 0 0 Z " fill="#78D8DC" transform="translate(283,224)"/>
<path d="M0 0 C0.99 0 1.98 0 3 0 C3.33 0.66 3.66 1.32 4 2 C6.01669827 3.13350534 6.01669827 3.13350534 8 4 C6 5 6 5 4.0546875 4.44140625 C3.33539063 4.15136719 2.61609375 3.86132812 1.875 3.5625 C1.15054688 3.27503906 0.42609375 2.98757812 -0.3203125 2.69140625 C-1.15175781 2.34916016 -1.15175781 2.34916016 -2 2 C-1.34 1.34 -0.68 0.68 0 0 Z " fill="#71CDD1" transform="translate(202,247)"/>
<path d="M0 0 C0.66 0.33 1.32 0.66 2 1 C0.35 2.32 -1.3 3.64 -3 5 C-4.32 4.34 -5.64 3.68 -7 3 C-4.69631264 1.93347808 -2.35981813 0.93578995 0 0 Z " fill="#081A21" transform="translate(297,304)"/>
<path d="M0 0 C0.33 0.99 0.66 1.98 1 3 C-0.98 4.32 -2.96 5.64 -5 7 C-5 6.01 -5 5.02 -5 4 C-2.5 1.8125 -2.5 1.8125 0 0 Z " fill="#051920" transform="translate(306,297)"/>
<path d="M0 0 C0.33 0 0.66 0 1 0 C1 2.97 1 5.94 1 9 C0.01 9.33 -0.98 9.66 -2 10 C-1.34 6.7 -0.68 3.4 0 0 Z " fill="#0C252A" transform="translate(318,272)"/>
<path d="M0 0 C2.64 0.66 5.28 1.32 8 2 C8 2.33 8 2.66 8 3 C6.02 3 4.04 3 2 3 C1.67 3.66 1.34 4.32 1 5 C0.67 3.35 0.34 1.7 0 0 Z " fill="#93E4E2" transform="translate(195,276)"/>
<path d="M0 0 C1.65 1.65 3.3 3.3 5 5 C3.35 4.67 1.7 4.34 0 4 C-0.33 4.66 -0.66 5.32 -1 6 C-1.625 4.125 -1.625 4.125 -2 2 C-1.34 1.34 -0.68 0.68 0 0 Z " fill="#76E4E9" transform="translate(306,237)"/>
<path d="M0 0 C0.33 1.32 0.66 2.64 1 4 C0.34 4 -0.32 4 -1 4 C-1.33 5.32 -1.66 6.64 -2 8 C-2.66 8 -3.32 8 -4 8 C-2.87548273 5.0280615 -1.77706209 2.66559313 0 0 Z " fill="#9DEBED" transform="translate(207,230)"/>
</svg>
