<?xml version="1.0" standalone="no"?>
<!DOCTYPE svg PUBLIC "-//W3C//DTD SVG 20010904//EN"
 "http://www.w3.org/TR/2001/REC-SVG-20010904/DTD/svg10.dtd">
<svg version="1.0" xmlns="http://www.w3.org/2000/svg"
 width="397.000000pt" height="94.000000pt" viewBox="0 0 397.000000 94.000000"
 preserveAspectRatio="xMidYMid meet">

<g transform="translate(0.000000,94.000000) scale(0.100000,-0.100000)"
fill="#000000" stroke="none">
<path d="M257 866 c-121 -44 -200 -156 -200 -286 0 -84 29 -152 91 -213 78
-76 109 -85 310 -89 162 -3 174 -2 188 16 19 27 18 60 -3 78 -14 13 -52 17
-178 20 -178 5 -199 11 -253 72 -73 83 -48 221 51 276 23 14 66 24 112 29 41
4 80 12 86 18 15 15 15 59 -1 78 -16 19 -149 20 -203 1z"/>
<path d="M335 629 c-41 -25 -46 -58 -15 -89 18 -18 33 -20 165 -20 155 0 196
-9 243 -53 90 -83 67 -245 -40 -295 -37 -17 -70 -21 -254 -25 -130 -3 -219 -9
-233 -16 -27 -15 -28 -61 -2 -85 17 -16 42 -17 253 -14 231 3 233 3 284 30 66
35 128 106 150 170 25 77 16 181 -23 249 -33 59 -103 119 -161 138 -53 18
-341 25 -367 10z"/>
<path d="M1181 627 c-31 -18 -50 -54 -51 -95 0 -44 42 -87 101 -101 65 -16 94
-34 97 -59 5 -35 -15 -52 -63 -52 -33 0 -52 7 -76 27 l-32 27 -19 -24 c-24
-30 -20 -40 28 -67 71 -41 196 -26 224 26 5 11 10 40 10 66 0 57 -28 89 -91
104 -76 19 -92 26 -103 44 -29 45 66 78 121 41 25 -16 27 -16 44 7 18 23 17
25 -2 44 -25 25 -151 33 -188 12z"/>
<path d="M1480 450 l0 -190 35 0 34 0 3 88 3 87 70 -87 c69 -86 71 -88 114
-88 41 0 43 1 29 18 -49 56 -138 175 -138 183 0 6 30 47 66 92 l67 82 -34 3
c-36 4 -38 2 -136 -114 l-42 -49 0 83 -1 82 -35 0 -35 0 0 -190z"/>
<path d="M1830 450 l0 -190 125 0 125 0 0 30 0 30 -90 0 -90 0 0 55 0 55 81 0
80 0 -3 28 c-3 27 -4 27 -80 30 l-78 3 0 44 0 45 90 0 90 0 0 30 0 30 -125 0
-125 0 0 -190z"/>
<path d="M2120 610 c0 -30 1 -30 55 -30 l55 0 0 -160 0 -160 35 0 35 0 0 160
0 160 55 0 c54 0 55 0 55 30 l0 30 -145 0 -145 0 0 -30z"/>
<path d="M2540 622 c-54 -29 -81 -87 -81 -172 0 -124 60 -190 171 -190 73 0
128 33 144 86 5 16 0 23 -21 33 -22 10 -28 10 -32 0 -10 -31 -51 -59 -86 -59
-77 0 -109 46 -103 148 4 55 8 68 32 88 38 33 95 32 135 -1 26 -23 33 -24 50
-13 12 7 21 18 21 25 0 18 -36 52 -66 63 -42 16 -126 12 -164 -8z"/>
<path d="M2850 450 l0 -190 35 0 35 0 0 90 0 90 85 0 85 0 0 -90 0 -90 35 0
35 0 0 190 0 190 -35 0 -35 0 0 -70 0 -70 -85 0 -85 0 0 70 0 70 -35 0 -35 0
0 -190z"/>
<path d="M3270 450 l0 -190 125 0 125 0 0 30 0 30 -90 0 -90 0 0 55 0 55 75 0
75 0 0 30 0 30 -75 0 -75 0 0 45 0 45 90 0 90 0 0 30 0 30 -125 0 -125 0 0
-190z"/>
<path d="M3590 450 l0 -190 35 0 c21 0 35 5 36 13 1 6 2 41 3 77 l1 65 36 3
c44 4 57 -10 85 -92 20 -58 22 -61 57 -64 l36 -3 -24 72 c-14 40 -35 83 -47
96 -12 13 -16 23 -9 23 26 0 61 49 61 85 0 80 -43 105 -180 105 l-90 0 0 -190z
m188 118 c7 -7 12 -24 12 -38 0 -38 -18 -50 -74 -50 l-51 0 -1 50 -1 50 52 0
c28 0 56 -5 63 -12z"/>
</g>
</svg>
